<?xml version="1.0" encoding="UTF-8"?>
<svg xmlns="http://www.w3.org/2000/svg" xmlns:xlink="http://www.w3.org/1999/xlink" id="Layer_1" viewBox="0 0 48 48">
  <defs>
    <radialGradient id="radial-gradient" cx="19.9744" cy="30.6315" fx="19.9744" fy="30.6315" r="25.8949" gradientUnits="userSpaceOnUse">
      <stop offset="0" stop-color="#3a2a1d"></stop>
      <stop offset=".77" stop-color="#241405"></stop>
    </radialGradient>
  </defs>
  <circle cx="24" cy="24" r="22" fill="#ff7618"></circle>
  <circle cx="24" cy="24" r="19.7333" fill="url(#radial-gradient)"></circle>
  <path id="Path_4" d="m23.9987,10.9548c1.5731-.0009,3.0103.8911,3.7076,2.3013-.3732.2212-.7169.4888-1.0228.7965-1.4787,1.4781-3.8755,1.4781-5.3543,0-.3062-.3073-.6498-.5749-1.0228-.7965.6941-1.4058,2.1244-2.2973,3.6922-2.3013Zm4.1013,3.6794c.0171.1507.0257.3022.0256.4539-.0014,2.6579,2.1517,4.8139,4.8096,4.816.1517-.0001.3032.0084.4539.0256-.1187.1633-.25.3172-.3925.4603-2.0094,2.0096-2.0094,5.2675,0,7.2771.1426.1439.2738.2986.3925.4628-.1507.0171-.3022.0257-.4539.0256-2.653.0021-4.8035,2.1515-4.8071,4.8045.0002.1525-.0083.3049-.0256.4564-.1642-.1191-.3189-.2508-.4628-.3938-2.0106-2.0081-5.2678-2.0081-7.2784,0-.1439.143-.2986.2746-.4628.3938-.0164-.1516-.024-.304-.023-.4564-.0049-2.6524-2.1547-4.801-4.8071-4.8045-.1508,0-.3015-.0085-.4513-.0256.1184-.1636.2497-.3175.3925-.4603,2.0099-2.0093,2.0103-5.2675.001-7.2774l-.001-.001c-.1432-.1427-.2749-.2966-.3938-.4603.1507-.0171.3022-.0257.4539-.0256,2.6534-.0035,4.8035-2.1537,4.8071-4.8071-.0009-.1516.0068-.3031.023-.4539.1642.1191.3189.2508.4628.3938,2.0093,2.0099,5.2675,2.0103,7.2773.001.0003-.0003.0007-.0007.001-.001.1426-.1452.296-.2794.459-.4014v-.0026Zm6.6481,5.6854c2.0441,1.0034,2.8877,3.474,1.8843,5.5181-.4022.8194-1.065,1.4821-1.8843,1.8843-.2224-.3731-.4908-.7167-.799-1.0228-1.4772-1.4786-1.4772-3.8744,0-5.353.3091-.31.5776-.658.799-1.0356v.009Zm-7.0457,14.4557c-1.0061,2.0452-3.4796,2.8875-5.5248,1.8814-.8177-.4022-1.4792-1.0638-1.8814-1.8814.373-.2216.7166-.4892,1.0228-.7965,1.479-1.4774,3.8752-1.4774,5.3543,0,.3068.3037.6504.5679,1.0228.7863l.0064.0102Zm-14.4583-7.0623c-2.0441-1.0034-2.8877-3.474-1.8843-5.5181.4022-.8194,1.065-1.4821,1.8843-1.8843.2218.3728.4894.7164.7965,1.0228,1.4782,1.4775,1.4787,3.8736.0012,5.3518-.0004.0004-.0008.0008-.0012.0012-.3068.3081-.5743.6529-.7965,1.0266Zm10.7545,10.036c1.8306-.0024,3.5015-1.0429,4.311-2.6848,2.6218,1.1059,5.6437-.1231,6.7496-2.7449.5397-1.2797.54-2.723.0008-4.0029,2.3802-1.1728,3.359-4.0531,2.1862-6.4333-.4679-.9497-1.2365-1.7182-2.1862-2.1862,1.1049-2.6223-.1252-5.6437-2.7475-6.7485-1.2799-.5393-2.7232-.539-4.0029.0008-1.1567-2.3802-4.024-3.372-6.4042-2.2153-.9658.4694-1.7459,1.2495-2.2153,2.2153-2.6238-1.1049-5.6465.1263-6.7514,2.7501-.5382,1.2781-.5388,2.7192-.0015,3.9977-2.3795,1.1742-3.3566,4.0551-2.1823,6.4346.4676.9476,1.2347,1.7147,2.1823,2.1823-1.1066,2.6215.1215,5.6438,2.743,6.7503,1.281.5408,2.7263.5408,4.0073,0,.8096,1.6419,2.4804,2.6824,4.311,2.6848Zm4.7368-3.9799c.0472-.2723.0707-.5482.0703-.8246.0021-2.2781,1.8488-4.1242,4.1269-4.1256.2772.0005.554-.023.8272-.0703.8716,1.9019.0363,4.1503-1.8657,5.0219-1.002.4591-2.1542.4591-3.1562,0l-.0026-.0013Zm5.0193-14.489c-.2723-.0471-.5482-.0707-.8246-.0703-2.2782-.0014-4.1248-1.8475-4.1269-4.1256-.0004-.2765-.0248-.5524-.0729-.8246,1.9017-.8721,4.1503-.0375,5.0224,1.8642.4591,1.001.4598,2.1522.002,3.1538v.0026Zm-14.4864-5.0231c-.0473.2732-.0708.5499-.0703.8272-.0049,2.2791-1.8542,4.1238-4.1333,4.1231-.2764-.0005-.5523.0231-.8246.0703-.8716-1.9019-.0363-4.1503,1.8657-5.0219,1.002-.4591,2.1542-.4591,3.1562,0l.0064.0013Zm-5.0219,14.4902c.2724.0467.5483.0702.8246.0703,2.2781.0028,4.1241,1.8488,4.1269,4.1269-.0006.2772.023.554.0703.8272-1.9001.8756-4.1502.0451-5.0258-1.8549-.4628-1.0043-.4637-2.1606-.0024-3.1656l.0064-.0038Z" fill="#ffe0cb" fill-rule="evenodd"></path>
</svg>
