<svg width="90" height="101" viewBox="0 0 90 101" fill="none" xmlns="http://www.w3.org/2000/svg">
<path fill-rule="evenodd" clip-rule="evenodd" d="M53.5697 11.7465L74.1044 23.6029C74.6973 22.9756 75.3776 22.4373 76.1244 22.0045C80.383 19.5561 85.8151 21.0098 88.2888 25.2687C90.7371 29.5277 89.2835 34.9594 85.0245 37.4331C84.2833 37.86 83.4846 38.178 82.6529 38.3775V62.0991C83.4755 62.2989 84.2655 62.6148 84.9992 63.0372C89.2835 65.5109 90.7371 70.943 88.2634 75.2019C85.8151 79.4605 80.3576 80.9142 76.0987 78.4662C75.2736 77.9928 74.5303 77.3894 73.8975 76.6792L53.4878 88.4628C53.7867 89.3678 53.9385 90.3149 53.9374 91.268C53.9374 96.1644 49.9593 100.169 45.0372 100.169C40.1152 100.169 36.1371 96.1898 36.1371 91.268C36.1371 90.3931 36.2628 89.5481 36.4971 88.7499L15.9679 76.8969C15.3816 77.5117 14.7108 78.0401 13.9758 78.4662C9.69148 80.9142 4.25939 79.4605 1.81102 75.2019C-0.636993 70.943 0.81668 65.5109 5.07528 63.0372C5.80892 62.6147 6.59893 62.2987 7.42157 62.0987V38.3775C6.58985 38.178 5.79113 37.86 5.04993 37.4331C0.790988 34.9851 -0.662685 29.5277 1.78568 25.2687C4.23404 21.0098 9.69113 19.5561 13.9501 22.0045C14.6927 22.435 15.3697 22.9699 15.9603 23.5929L36.5009 11.7333C36.2588 10.9114 36.1363 10.059 36.1371 9.20228C36.1371 4.28089 40.1152 0.302124 45.0372 0.302124C49.9593 0.302124 53.9374 4.28055 53.9374 9.20228C53.9374 10.0869 53.8089 10.9406 53.5697 11.7465ZM51.4303 15.3996L72.014 27.2838C71.6863 28.4295 71.5923 29.6295 71.7376 30.8123C71.883 31.9951 72.2647 33.1366 72.8601 34.1689C74.1131 36.3485 76.1542 37.7935 78.4196 38.3567V62.1078C78.304 62.1359 78.1891 62.1668 78.0749 62.1994L51.1911 15.6374C51.2724 15.5596 51.3522 15.4805 51.4303 15.3999V15.3996ZM38.8889 15.6426L12.0055 62.2039C11.8892 62.1703 11.7723 62.1391 11.6548 62.1102V38.3567C13.9202 37.7935 15.9613 36.3485 17.2143 34.1689C17.8109 33.1346 18.193 31.9907 18.3378 30.8055C18.4826 29.6203 18.3871 28.4181 18.057 27.2706L38.6348 15.3899C38.7177 15.4756 38.8024 15.56 38.8889 15.6423V15.6426ZM47.5241 17.7518L74.4013 64.3027C73.7856 64.8901 73.2579 65.5633 72.8344 66.3014C72.412 67.0351 72.0961 67.8251 71.8963 68.6477H18.1788C17.9787 67.8251 17.6626 67.035 17.24 66.3014C16.8151 65.5684 16.2884 64.8993 15.6756 64.3141L42.558 17.7539C43.3639 17.9859 44.1985 18.1033 45.0372 18.1024C45.9007 18.1024 46.735 17.9802 47.5241 17.7518ZM51.6192 85.2721L72.0692 73.465C72.0079 73.2722 71.9532 73.0774 71.905 72.881H18.1674C18.1389 72.9966 18.108 73.1112 18.075 73.2254L38.625 85.0905C39.4549 84.2276 40.4508 83.5415 41.5528 83.0736C42.6548 82.6057 43.84 82.3657 45.0372 82.3679C46.2763 82.3657 47.5021 82.623 48.6357 83.1232C49.7693 83.6234 50.7856 84.3554 51.6192 85.2721Z" fill="#E535AB"/>
</svg>
